<?xml version="1.0" encoding="UTF-8" standalone="no"?>
<!-- Created with Inkscape (http://www.inkscape.org/) -->

<svg
   xmlns:dc="http://purl.org/dc/elements/1.1/"
   xmlns:cc="http://creativecommons.org/ns#"
   xmlns:rdf="http://www.w3.org/1999/02/22-rdf-syntax-ns#"
   xmlns:svg="http://www.w3.org/2000/svg"
   xmlns="http://www.w3.org/2000/svg"
   xmlns:sodipodi="http://sodipodi.sourceforge.net/DTD/sodipodi-0.dtd"
   xmlns:inkscape="http://www.inkscape.org/namespaces/inkscape"
   width="36.663616mm"
   height="36.664032mm"
   viewBox="0 0 36.663616 36.664032"
   version="1.1"
   id="svg853"
   inkscape:version="0.92.2 5c3e80d, 2017-08-06"
   sodipodi:docname="thetechwanderer_logo.svg">
  <defs
     id="defs847" />
  <sodipodi:namedview
     id="base"
     pagecolor="#ffffff"
     bordercolor="#666666"
     borderopacity="1.0"
     inkscape:pageopacity="0.0"
     inkscape:pageshadow="2"
     inkscape:zoom="0.35"
     inkscape:cx="-160.71443"
     inkscape:cy="-407.8565"
     inkscape:document-units="mm"
     inkscape:current-layer="layer1"
     showgrid="false"
     inkscape:window-width="1080"
     inkscape:window-height="675"
     inkscape:window-x="0"
     inkscape:window-y="23"
     inkscape:window-maximized="0" />
  <metadata
     id="metadata850">
    <rdf:RDF>
      <cc:Work
         rdf:about="">
        <dc:format>image/svg+xml</dc:format>
        <dc:type
           rdf:resource="http://purl.org/dc/dcmitype/StillImage" />
        <dc:title></dc:title>
      </cc:Work>
    </rdf:RDF>
  </metadata>
  <g
     inkscape:label="Calque 1"
     inkscape:groupmode="layer"
     id="layer1"
     transform="translate(-2.8348597,-4.2572697)">
    <path
       inkscape:connector-curvature="0"
       id="path4644-2-5"
       d="M 21.166873,4.2572697 A 18.331836,18.331836 0 0 0 2.8348597,22.58928 18.331836,18.331836 0 0 0 21.166873,40.921302 18.331836,18.331836 0 0 0 39.498474,22.58928 18.331836,18.331836 0 0 0 21.166873,4.2572697 Z m 1.14764,10.6311903 c 0.0164,5.29e-4 0.0332,0.003 0.0501,0.007 0.0678,0.017 0.1185,0.0551 0.1524,0.11439 0.0339,0.0593 0.0424,0.12261 0.0255,0.19041 -0.1356,0.60172 -0.47874,1.10628 -1.02961,1.51308 -0.48307,0.33899 -1.10201,0.60142 -1.85628,0.78786 -0.72037,0.1695 -1.51697,0.28389 -2.38988,0.3432 -0.87292,0.0508 -1.75429,0.0975 -2.64416,0.13987 h -0.190399 c -0.0508,0 -0.11047,0.005 -0.17827,0.0129 -0.0169,0.2712 -0.034,0.56364 -0.0509,0.87721 -0.017,0.30509 -0.038,0.62268 -0.0635,0.9532 -0.0593,0.92376 -0.11854,1.88139 -0.17786,2.87295 -0.0508,0.983101 -0.0719,1.932611 -0.0635,2.847901 0,0.27119 0.004,0.56769 0.0125,0.88974 0.009,0.32204 0.0215,0.63152 0.0384,0.92814 0.0254,0.3051 0.055,0.5805 0.0889,0.82627 0.0424,0.25425 0.0931,0.44893 0.15239,0.58454 0.0678,0.1356 0.14852,0.19927 0.24174,0.1908 0.0932,0 0.20315,-0.11032 0.33027,-0.33067 0.19492,-0.32205 0.39002,-0.70737 0.58494,-1.15654 0.2034,-0.44918 0.4066,-0.96226 0.609999,-1.53855 0.355951,-0.98309 0.597681,-1.72007 0.724811,-2.21161 0.1356,-0.500021 0.20333,-0.758791 0.20333,-0.775741 0.008,-0.0342 0.0227,-0.0638 0.042,-0.0893 0.0114,-0.0412 0.0293,-0.0802 0.0631,-0.11399 0.0508,-0.0508 0.11047,-0.0764 0.17827,-0.0764 0.38138,0 0.72452,-0.0974 1.02961,-0.29227 0.3051,-0.2034 0.57198,-0.46177 0.80081,-0.77534 0.23729,-0.31357 0.4405,-0.66117 0.61,-1.04254 0.1695,-0.38985 0.31389,-0.76706 0.43254,-1.13147 0.11865,-0.37291 0.21153,-0.71158 0.27933,-1.01668 0.0678,-0.31357 0.1189,-0.55531 0.1528,-0.7248 0.017,-0.0848 0.0721,-0.16507 0.16534,-0.24134 0.0932,-0.0763 0.20314,-0.13995 0.33027,-0.1908 0.12712,-0.0593 0.26705,-0.0974 0.4196,-0.1144 0.15255,-0.0254 0.29248,-0.0254 0.4196,0 0.12713,0.017 0.23299,0.0636 0.31774,0.13987 0.0932,0.0763 0.14392,0.18619 0.1524,0.33026 0,0.008 -0.0211,0.13584 -0.0635,0.38161 -0.0424,0.23729 -0.089,0.55082 -0.13987,0.94067 -0.0508,0.38984 -0.10155,0.83033 -0.1524,1.32187 -0.0508,0.49155 -0.0849,0.99166 -0.10187,1.50015 -0.017,0.59325 -0.008,1.13553 0.0255,1.62708 0.0339,0.483071 0.0976,0.915431 0.19081,1.296811 0.19492,0.90682 0.45329,1.3984 0.77533,1.47467 0.33052,0.0763 0.74992,-0.22021 1.25841,-0.88973 0.49155,-0.66952 0.98314,-1.61051 1.47468,-2.822431 0.2034,-0.50849 0.38146,-0.99562 0.53401,-1.46174 0.15254,-0.46612 0.2799,-0.87699 0.3816,-1.23294 0.1017,-0.36442 0.17795,-0.65686 0.2288,-0.87721 0.0593,-0.22034 0.0889,-0.33918 0.0889,-0.35613 0.017,-0.14408 0.12282,-0.27955 0.31774,-0.40667 0.2034,-0.1356 0.41512,-0.22484 0.63547,-0.26721 0.22882,-0.0509 0.43243,-0.0379 0.6104,0.0384 0.18645,0.0678 0.27528,0.23288 0.2668,0.4956 0,0.008 -0.017,0.14841 -0.0509,0.4196 -0.0254,0.2712 -0.055,0.63138 -0.0889,1.08054 -0.0339,0.44069 -0.0635,0.94932 -0.0889,1.52562 -0.0254,0.56781 -0.0339,1.15675 -0.0255,1.76694 0.008,0.711891 0.0426,1.355991 0.10187,1.932281 0.0593,0.5763 0.1441,1.08897 0.25427,1.53815 0.0932,0.38984 0.19463,0.72041 0.3048,0.9916 0.11017,0.2712 0.23753,0.46183 0.381612,0.57201 0.152541,0.11017 0.326139,0.13127 0.521068,0.0634 0.194921,-0.0678 0.428141,-0.24587 0.699342,-0.53401 0.49154,-0.5424 0.944999,-1.29235 1.36027,-2.25002 0.21187,-0.5085 0.39805,-1.03375 0.55907,-1.57614 l -0.35573,-0.12733 -0.356139,-0.15241 C 31.334346,23.40829 30.885335,23.02257 30.478546,22.4717 c -0.355952,-0.48307 -0.644332,-1.05943 -0.864682,-1.72895 -0.211868,-0.65257 -0.342881,-1.31329 -0.39373,-1.98281 -0.0424,-0.66951 0.004,-1.284 0.13987,-1.84335 0.144071,-0.59324 0.381352,-1.05522 0.711872,-1.38574 0.381368,-0.38137 0.847408,-0.55497 1.398278,-0.52107 0.32204,0 0.601501,0.0718 0.838801,0.21586 0.237299,0.14408 0.440909,0.33472 0.610409,0.57201 0.169493,0.2373 0.309431,0.50864 0.419601,0.81374 0.110169,0.30509 0.19454,0.62309 0.25387,0.95361 0.0678,0.32205 0.110381,0.6441 0.127331,0.96614 0.0254,0.31357 0.038,0.60155 0.038,0.86427 0,0.50002 -0.0296,1.02122 -0.0889,1.56361 -0.0593,0.53392 -0.148151,1.07622 -0.266798,1.62708 l -0.190799,0.80081 0.0889,0.0384 c 0.483071,0.211871 0.957617,0.262571 1.423736,0.152391 0.466122,-0.11864 0.847791,-0.377011 1.144413,-0.775331 0.0508,-0.0678 0.0971,-0.11038 0.139459,-0.12734 0.0678,-0.0339 0.131482,-0.0379 0.190813,-0.0125 0.0678,0.0254 0.114437,0.072 0.139866,0.13987 0.0593,0.11017 0.0423,0.20345 -0.0509,0.27973 0,0.008 -0.004,0.0125 -0.01249,0.0125 -0.186449,0.26272 -0.40264,0.474841 -0.648411,0.635871 -0.245769,0.15255 -0.512657,0.26693 -0.800799,0.3432 -0.27967,0.0678 -0.572119,0.0974 -0.87721,0.0889 -0.305099,-0.008 -0.610111,-0.0466 -0.91521,-0.1144 -0.0932,0.28814 -0.18651,0.57206 -0.27973,0.85174 -0.0932,0.27119 -0.199091,0.53362 -0.317741,0.78786 -0.211868,0.5085 -0.440629,0.9579 -0.686398,1.34775 -0.237302,0.39832 -0.491612,0.74592 -0.762812,1.04254 -0.194919,0.22883 -0.428138,0.43203 -0.699339,0.61001 -0.262721,0.17797 -0.538131,0.30087 -0.82627,0.36867 -0.288153,0.0763 -0.580593,0.0803 -0.877213,0.0125 -0.28815,-0.0678 -0.55503,-0.232881 -0.8008,-0.4956 -0.83054,-0.906811 -1.23736,-2.898321 -1.22041,-5.974712 0.008,-0.28815 0.0129,-0.56801 0.0129,-0.83921 0.008,-0.27967 0.021,-0.55062 0.038,-0.81334 -0.0847,0.2712 -0.17804,0.55066 -0.27974,0.83881 -0.0932,0.27967 -0.199091,0.56359 -0.317731,0.85174 -0.58477,1.449211 -1.18669,2.538251 -1.805349,3.267091 -0.6102,0.72884 -1.245771,1.09348 -1.906821,1.09348 -0.54239,0 -0.99585,-0.21619 -1.36027,-0.648409 -0.35595,-0.432221 -0.60986,-1.076321 -0.76241,-1.932291 -0.14407,-0.85596 -0.1822,-1.923901 -0.1144,-3.203611 0.008,-0.0847 0.0125,-0.16507 0.0125,-0.24134 0.008,-0.0763 0.0125,-0.15699 0.0125,-0.24174 -0.14407,0.32205 -0.30063,0.61449 -0.47013,0.87721 -0.1695,0.26272 -0.34756,0.49148 -0.533999,0.68641 -0.51797,0.54115 -1.09636,0.83251 -1.73421,0.88003 -0.0156,0.0713 -0.0587,0.24263 -0.176251,0.683571 -0.13559,0.50002 -0.38139,1.24998 -0.73734,2.250021 -0.42374,1.169539 -0.83908,2.102019 -1.245869,2.796949 -0.542401,0.9153 -1.07617,1.37687 -1.601611,1.38535 h -0.0255 c -0.25425,0 -0.47044,-0.101399 -0.64841,-0.3048 -0.26272,-0.2712 -0.457411,-0.74169 -0.58453,-1.411209 -0.12712,-0.669521 -0.199321,-1.576451 -0.216271,-2.720561 -0.008,-0.94919 0.0126,-1.94494 0.0635,-2.987351 0.0593,-1.04241 0.11895,-2.05074 0.178271,-3.02535 0.0508,-0.63563 0.089,-1.2205 0.1144,-1.75442 -0.567821,0.0339 -1.119029,0.0846 -1.652948,0.1524 -0.525443,0.0593 -1.0210903,0.14856 -1.4872113,0.2672 -0.457645,0.11865 -0.87298,0.27116 -1.245876,0.45761 -0.372895,0.18644 -0.686426,0.41521 -0.940672,0.6864 -0.48307,0.52544 -0.707774,1.21618 -0.673874,2.07215 0,0.16102 -0.08031,0.24985 -0.241331,0.2668 h -0.01253 c -0.0678,0 -0.127422,-0.0252 -0.178271,-0.076 -0.05085,-0.0508 -0.076,-0.11047 -0.076,-0.17827 -0.02542,-0.50001 0.03379,-0.95753 0.177868,-1.37281 0.127122,-0.38984 0.33479,-0.7415 0.622938,-1.05507 0.372896,-0.39832 0.855968,-0.72037 1.449212,-0.96614 0.508494,-0.21187 1.13961,-0.38142 1.8938783,-0.50853 0.372895,-0.0678 0.758621,-0.12297 1.156942,-0.16534 0.398316,-0.0424 0.809595,-0.076 1.233346,-0.10147 0.0169,-0.20339 0.0251,-0.39444 0.0251,-0.57241 v -0.4956 c 0,-0.14407 0.0892,-0.27954 0.26721,-0.40667 0.177971,-0.12712 0.37266,-0.20784 0.584531,-0.24173 0.220349,-0.0424 0.423959,-0.0168 0.61041,0.0764 0.194919,0.0932 0.300779,0.28386 0.317729,0.57201 0.009,0.14407 0.009,0.30103 0,0.47053 0,0.16103 -0.008,0.33463 -0.0255,0.52107 0.4068,-0.017 0.86026,-0.0425 1.36028,-0.0764 0.5085,-0.0339 1.02969,-0.0846 1.56361,-0.1524 0.53392,-0.0678 1.06364,-0.15703 1.58908,-0.26721 0.53392,-0.11017 1.02105,-0.24969 1.46174,-0.41919 0.4407,-0.1695 0.81791,-0.37717 1.13148,-0.62295 0.32205,-0.24577 0.54675,-0.53415 0.67387,-0.86467 0.0254,-0.0678 0.0635,-0.1185 0.114401,-0.1524 0.0445,-0.0318 0.0914,-0.0469 0.14068,-0.0453 z m 9.728511,0.87397 c -0.0344,-0.002 -0.0688,0.002 -0.10268,0.0105 -0.127121,0.0254 -0.25002,0.11831 -0.36866,0.27933 -0.11018,0.15255 -0.20752,0.34764 -0.292272,0.58494 -0.0763,0.22882 -0.139959,0.48313 -0.190809,0.7628 -0.0509,0.27967 -0.0805,0.55508 -0.0889,0.82628 -0.01701,0.52544 0.02561,1.05921 0.127341,1.60161 0.11017,0.54239 0.262679,1.05507 0.4576,1.53814 0.16103,0.3729 0.339079,0.70346 0.534008,0.99161 0.203401,0.28814 0.419182,0.52988 0.648002,0.72481 0.152548,-0.61868 0.26693,-1.24167 0.343199,-1.86882 0.0847,-0.62714 0.131389,-1.23311 0.139869,-1.81788 0.009,-0.57629 -0.0296,-1.09749 -0.114398,-1.56361 -0.0763,-0.47459 -0.18619,-0.88141 -0.330271,-1.22041 -0.152551,-0.33899 -0.301001,-0.57222 -0.445069,-0.69934 -0.108061,-0.0953 -0.21364,-0.1452 -0.316931,-0.14997 z"
       style="fill:#9f4a54;fill-opacity:1;stroke-width:0.20697235" />
  </g>
</svg>
